<?xml version="1.0" encoding="utf-8"?>
<!-- Generator: Adobe Illustrator 22.0.1, SVG Export Plug-In . SVG Version: 6.00 Build 0)  -->
<svg version="1.1" xmlns="http://www.w3.org/2000/svg" xmlns:xlink="http://www.w3.org/1999/xlink" x="0px" y="0px"
	 viewBox="0 0 300 150" style="enable-background:new 0 0 300 150;" xml:space="preserve">
<style type="text/css">
	.st0{fill:none;stroke:#212121;stroke-width:2;stroke-miterlimit:10;}
	.st1{fill:none;stroke:#212121;stroke-miterlimit:10;}
	.st2{fill:url(#SVGID_1_);}
	.st3{fill:#333333;}
	.st4{font-family:'BerlinBold';}
	.st5{font-size:45.5954px;}
	.st6{font-family:'Berlin';}
	.st7{font-size:13.9728px;}
	.st8{letter-spacing:3;}
</style>
<g id="Layer_1">
	<g>
		
			<rect x="44.5" y="29.8" transform="matrix(0.7071 -0.7071 0.7071 0.7071 -15.367 57.9008)" class="st0" width="35.4" height="35.4"/>
		
			<rect x="44.5" y="84.8" transform="matrix(0.7071 -0.7071 0.7071 0.7071 -54.2579 74.01)" class="st0" width="35.4" height="35.4"/>
		<rect x="17" y="57.3" transform="matrix(0.7071 -0.7071 0.7071 0.7071 -42.867 46.51)" class="st0" width="35.4" height="35.4"/>
		
			<rect x="72" y="57.3" transform="matrix(0.7071 -0.7071 0.7071 0.7071 -26.7579 85.4008)" class="st0" width="35.4" height="35.4"/>
		<line class="st1" x1="34.7" y1="50" x2="34.7" y2="100"/>
		<line class="st1" x1="22.3" y1="62.4" x2="22.3" y2="87.6"/>
		<line class="st1" x1="47.1" y1="62.4" x2="47.1" y2="87.6"/>
		<rect x="54.7" y="40" class="st1" width="15" height="15"/>
		<line class="st1" x1="54.7" y1="55" x2="44.7" y2="55"/>
		<line class="st1" x1="69.7" y1="55" x2="79.7" y2="55"/>
		<line class="st1" x1="54.7" y1="40" x2="44.7" y2="40"/>
		<line class="st1" x1="69.7" y1="40" x2="79.7" y2="40"/>
		<line class="st1" x1="54.7" y1="40" x2="54.7" y2="30"/>
		<line class="st1" x1="69.7" y1="40" x2="69.7" y2="30"/>
		<line class="st1" x1="54.7" y1="55" x2="54.7" y2="65"/>
		<line class="st1" x1="69.7" y1="55" x2="69.7" y2="65"/>
		<line class="st1" x1="37.2" y1="102.5" x2="87.2" y2="102.5"/>
		<line class="st1" x1="47.1" y1="92.4" x2="77" y2="92.4"/>
		<line class="st1" x1="56" y1="83.6" x2="68.3" y2="83.6"/>
		<line class="st1" x1="47.1" y1="102.5" x2="47.1" y2="112.4"/>
		<line class="st1" x1="62.2" y1="102.5" x2="62.2" y2="127.5"/>
		<line class="st1" x1="77.4" y1="112.4" x2="77.4" y2="102.5"/>
		<line class="st1" x1="73" y1="66.7" x2="97.7" y2="92"/>
		<line class="st1" x1="81.6" y1="58.3" x2="106.3" y2="83.6"/>
	</g>
</g>
<g id="Layer_3">
	<linearGradient id="SVGID_1_" gradientUnits="userSpaceOnUse" x1="10.1698" y1="77.4345" x2="117.709" y2="77.4345">
		<stop  offset="0" style="stop-color:#FFFFFF;stop-opacity:0"/>
		<stop  offset="0.8319" style="stop-color:#FFFFFF"/>
	</linearGradient>
	<rect x="10.2" y="18.8" class="st2" width="107.5" height="117.3"/>
</g>
<g id="Layer_2">
	<g>
		<text transform="matrix(1 0 0 1 93.1882 74.4274)" class="st3 st4 st5">ADELPHIA </text>
		<text transform="matrix(1 0 0 1 94.6614 92.8381)" class="st3 st6 st7 st8">FLOOR SURFACES LTD</text>
	</g>
</g>
</svg>
